<svg xmlns="http://www.w3.org/2000/svg" width="48" height="48" viewBox="0 0 48 48">
  <g fill="none" fill-rule="evenodd" stroke="#00BCDB">
    <circle cx="24" cy="24" r="15" fill="#00BCDB" fill-opacity=".3"/>
    <path fill="#00BCDB" fill-opacity=".3" d="M44,25 C42.8954305,25 42,24.1045695 42,23 C42,21.8954305 42.8954305,21 44,21 C45.1045695,21 46,21.8954305 46,23 C46,24.1045695 45.1045695,25 44,25 Z M40.1865335,35.2320508 C39.2299482,34.6797661 38.9021979,33.4565852 39.4544827,32.5 C40.0067674,31.5434148 41.2299482,31.2156644 42.1865335,31.7679492 C43.1431187,32.3202339 43.470869,33.5434148 42.9185843,34.5 C42.3662995,35.4565852 41.1431187,35.7843356 40.1865335,35.2320508 Z M31.7679492,42.1865335 C31.2156644,41.2299482 31.5434148,40.0067674 32.5,39.4544827 C33.4565852,38.9021979 34.6797661,39.2299482 35.2320508,40.1865335 C35.7843356,41.1431187 35.4565852,42.3662995 34.5,42.9185843 C33.5434148,43.470869 32.3202339,43.1431187 31.7679492,42.1865335 Z M21,44 C21,42.8954305 21.8954305,42 23,42 C24.1045695,42 25,42.8954305 25,44 C25,45.1045695 24.1045695,46 23,46 C21.8954305,46 21,45.1045695 21,44 Z M10.7679492,40.1865335 C11.3202339,39.2299482 12.5434148,38.9021979 13.5,39.4544827 C14.4565852,40.0067674 14.7843356,41.2299482 14.2320508,42.1865335 C13.6797661,43.1431187 12.4565852,43.470869 11.5,42.9185843 C10.5434148,42.3662995 10.2156644,41.1431187 10.7679492,40.1865335 Z M3.81346652,31.7679492 C4.77005177,31.2156644 5.99323258,31.5434148 6.54551733,32.5 C7.09780208,33.4565852 6.77005177,34.6797661 5.81346652,35.2320508 C4.85688127,35.7843356 3.63370046,35.4565852 3.08141571,34.5 C2.52913096,33.5434148 2.85688127,32.3202339 3.81346652,31.7679492 Z M2,21 C3.1045695,21 4,21.8954305 4,23 C4,24.1045695 3.1045695,25 2,25 C0.8954305,25 0,24.1045695 0,23 C0,21.8954305 0.8954305,21 2,21 Z M5.81346652,10.7679492 C6.77005177,11.3202339 7.09780208,12.5434148 6.54551733,13.5 C5.99323258,14.4565852 4.77005177,14.7843356 3.81346652,14.2320508 C2.85688127,13.6797661 2.52913096,12.4565852 3.08141571,11.5 C3.63370046,10.5434148 4.85688127,10.2156644 5.81346652,10.7679492 Z M14.2320508,3.81346652 C14.7843356,4.77005177 14.4565852,5.99323258 13.5,6.54551733 C12.5434148,7.09780208 11.3202339,6.77005177 10.7679492,5.81346652 C10.2156644,4.85688127 10.5434148,3.63370046 11.5,3.08141571 C12.4565852,2.52913096 13.6797661,2.85688127 14.2320508,3.81346652 Z M25,2 C25,3.1045695 24.1045695,4 23,4 C21.8954305,4 21,3.1045695 21,2 C21,0.8954305 21.8954305,4.4408921e-16 23,4.4408921e-16 C24.1045695,-4.4408921e-16 25,0.8954305 25,2 Z M35.2320508,5.81346652 C34.6797661,6.77005177 33.4565852,7.09780208 32.5,6.54551733 C31.5434148,5.99323258 31.2156644,4.77005177 31.7679492,3.81346652 C32.3202339,2.85688127 33.5434148,2.52913096 34.5,3.08141571 C35.4565852,3.63370046 35.7843356,4.85688127 35.2320508,5.81346652 Z M42.1865335,14.2320508 C41.2299482,14.7843356 40.0067674,14.4565852 39.4544827,13.5 C38.9021979,12.5434148 39.2299482,11.3202339 40.1865335,10.7679492 C41.1431187,10.2156644 42.3662995,10.5434148 42.9185843,11.5 C43.470869,12.4565852 43.1431187,13.6797661 42.1865335,14.2320508 Z" transform="translate(1 1)"/>
    <path stroke-linecap="square" d="M24,8.5 L24,5.5 M31.75,10.5766062 L33.25,7.97853003 M37.4233938,16.25 L40.02147,14.75 M39.5,24 L42.5,24 M37.4233938,31.75 L40.02147,33.25 M31.75,37.4233938 L33.25,40.02147 M24,39.5 L24,42.5 M16.25,37.4233938 L14.75,40.02147 M10.5766062,31.75 L7.97853003,33.25 M8.5,24 L5.5,24 M10.5766062,16.25 L7.97853003,14.75 M16.25,10.5766062 L14.75,7.97853003"/>
  </g>
</svg>
