<svg id="Layer_4" data-name="Layer 4" xmlns="http://www.w3.org/2000/svg" viewBox="0 0 30 30"><defs><style>.cls-1{opacity:0.7;}.cls-2{fill:#00a5da;}.cls-2,.cls-4,.cls-5,.cls-6{opacity:0.9;}.cls-3{fill:#63dbf0;}.cls-4,.cls-5,.cls-6{fill:none;stroke-miterlimit:10;}.cls-4{stroke:#05c5e7;stroke-width:1.27px;}.cls-5{stroke:#00b3e0;stroke-width:1.16px;}.cls-6{stroke:#1ca9dd;stroke-width:1.05px;}.cls-7{fill:#a1e9f6;}</style></defs><title>virus-01</title><g class="cls-1"><circle class="cls-2" cx="15.08" cy="15.11" r="5.65" transform="translate(-3.58 25.47) rotate(-74.08)"/><path class="cls-3" d="M24.24,13.41A13.43,13.43,0,0,1,26.15,13c.74-.09,1.52.62,2,.55a.91.91,0,0,0,.75-1.16c-.11-.71-.58-1-1-.91s-.62.75-1.19.84c-.76.13-2.51.16-3.39.23C21,12.76,20.56,10.81,22,9.46a14.78,14.78,0,0,1,1.48-1.4c.42-.34,1.14-.18,1.47-.34.69-.34.48-1.27.25-1.56a1.05,1.05,0,0,0-1.47-.06c-.27.34-.05,1-.44,1.31s-1.87,1.31-2.44,1.77a1.9,1.9,0,0,1-2,.3l-.5-.3a2.06,2.06,0,0,1-1-2.23c.08-.94,0-1.88.11-2.69s.76-.76.88-1.31c.18-.87-.12-1.38-.92-1.4a1.16,1.16,0,0,0-1,.9c-.09.72.34,1,.28,1.72a12.17,12.17,0,0,1-.14,1.78c-.41,2.69-1.71,2.43-1.71,2.43a6.7,6.7,0,0,0-1.57.26,2.12,2.12,0,0,1-2-1.43,14.78,14.78,0,0,1-.93-1.81c-.2-.49.4-.77,0-1.55a1.08,1.08,0,0,0-1.47-.53c-.39.16-.55,1-.41,1.34.31.81,1,.31,1.25.88s.65,2,.93,2.69a1.9,1.9,0,0,1-.49,2.24s-.84,1.19-2.7.3a17.09,17.09,0,0,1-2-1c-.56-.33-.12-1.09-1-1.34A1.16,1.16,0,0,0,3.13,9a1.07,1.07,0,0,0,.44,1.34c.41.18,1.37-.27,1.93,0s1.39,1.16,2,1.53a1.9,1.9,0,0,1,1,1.57l-.05.22c0,.2-.07.41-.1.61,0,0,.09,1.42-2.59,1.91-1.37.25-.73.38-2.17.54-.81.09-.41-.47-1.47-.23a1.09,1.09,0,0,0-.72,1c.05.47.3,1.12,1.13,1,1.06-.16.67-1,1.44-1.06s1.89-.19,2.82-.3c2-.22,2.15,1.21,2.15,1.21l0-.14a2.1,2.1,0,0,1-.63,2.05c-.58.57-2.09,1.64-2.52,2.2-.09.13-.9-.13-1.41.25a1.34,1.34,0,0,0-.12,1.59,1.13,1.13,0,0,0,1.53.06c.46-.31.31-1,.47-1.16a22.26,22.26,0,0,1,2.23-1.64c1.44-1.2,2.44-.9,2.8-.73a2.17,2.17,0,0,1,.62,2.31c-.21.92-.45,2.48-.64,3.28s-.85.51-1,1.06A1,1,0,0,0,11,28.94a1.34,1.34,0,0,0,1.53-.78c.14-.47-.58-.74-.41-1.56a21.44,21.44,0,0,1,.52-2.34c.73-2.62,2.13-2.4,2.13-2.4.46,0,1.17.64,1.48,1.74.23.81.72,2.86.91,3.57.09.34-.41.68-.31,1.19a.83.83,0,0,0,1,.72c.78-.16.74-.61.69-.91-.14-.82-.62-.72-.75-1.09a29.21,29.21,0,0,1-.74-2.85c-.78-3.13,1.83-3.52,3.1-1.75a20.84,20.84,0,0,1,1.38,2c.33.55-.25.59.19,1.28a1.3,1.3,0,0,0,1.56.41c.39-.24.81-1.09.25-1.59-.41-.36-1.06-.37-1.25-.53a15.22,15.22,0,0,1-1.71-2.65A1.94,1.94,0,0,1,20.7,19l0,0c.22-.31,1-1.11,2.62-.48,1,.39,1.4.78,2.41,1.28.58.28.09.75.75,1.06.86.41,1.48,0,1.59-.53.41-1.91-1.34-1.09-1.69-1.22-.6-.22-2.65-1.43-3.31-1.75a2,2,0,0,1-1.19-2S21.72,13.88,24.24,13.41ZM21.3,12.09,9.84,14A5.36,5.36,0,1,1,14,20.36,5.37,5.37,0,0,1,9.84,14Z"/><circle class="cls-4" cx="15.08" cy="15.11" r="5.52" transform="translate(-2.8 26.77) rotate(-78.15)"/><circle class="cls-5" cx="15.08" cy="15.11" r="5.04" transform="translate(-2.8 26.77) rotate(-78.15)"/><circle class="cls-6" cx="15.08" cy="15.11" r="4.59" transform="translate(-2.8 26.77) rotate(-78.15)"/><path class="cls-7" d="M16.54,8.85s-.14,0,.27-2.71c.21-1.37-.11,0,0-1.47s.17-2.6.58-2.62c.58,0-.24,1.17-.4,2.58-.1.81,0,1.28-.08,2.22-.17,2-.44,2-.44,2"/><path class="cls-7" d="M8.93,16.21A11.62,11.62,0,0,0,6,16.6a8.81,8.81,0,0,1-1.59.23C3,17,1.82,17,1.81,17.49c0,.63,1.17-.27,2.57-.48.81-.12,1.41-.2,2.34-.31,2-.22,2.21-.56,2.21-.56"/><path class="cls-7" d="M10.19,19.45s0,.23-1.86,1.74c-.92.77-.57.22-1.46,1.1S5.33,23.92,5,23.62c-.52-.42.83-.61,1.74-1.44.52-.48,1.34-1,1.92-1.55,1.21-1.19,1.62-1.13,1.62-1.13"/><path class="cls-7" d="M13,21.14A12.65,12.65,0,0,1,12.34,24,11.23,11.23,0,0,0,12,25.7c-.3,1.42-.48,2.56-.89,2.53-.58,0,.37-1.14.7-2.51.19-.79.28-1.5.48-2.42.4-1.92.75-2.15.75-2.15"/><path class="cls-7" d="M21.29,13.46A11,11,0,0,0,24,13.08,14.33,14.33,0,0,1,26,12.92c1.35-.16,2.29,0,2.3-.4,0-.59-.95,0-2.26.22-.76.11-1.76.14-2.64.24-1.84.21-2.07.54-2.07.54"/><path class="cls-7" d="M19.14,20.17s0,.22,1.27,2a10.71,10.71,0,0,1,1,1.41c.6,1,1,1.82,1.4,1.65.53-.24-.61-.75-1.23-1.7-.36-.55-.92-1.28-1.31-1.93-.81-1.35-1.18-1.4-1.18-1.4"/><path class="cls-7" d="M21.21,17.24a7.58,7.58,0,0,0,2.09,1,15.53,15.53,0,0,1,1.8.94c1,.49,1.7,1.17,1.92.82s-.79-.51-1.8-1c-.58-.26-1.67-.87-2.32-1.19-1.38-.67-1.71-.5-1.71-.5"/><path class="cls-7" d="M16.13,21.59a14.73,14.73,0,0,1,.68,2.54c.28,1.2.19.83.54,2.06s.67,2.22.42,2.35-.2-1-.52-2.26c-.18-.71-.5-1.9-.72-2.71-.48-1.69-.36-2-.36-2"/><path class="cls-7" d="M19.9,10.75s.21,0,1.76-1.48a15.53,15.53,0,0,1,1.62-1.22c.88-.7,1.62-1.22,1.4-1.57s-.64.68-1.48,1.4c-.48.42-1.51,1.12-2.08,1.58-1.2,1-1.19,1.32-1.19,1.32"/><path class="cls-7" d="M9.32,12.25a7.58,7.58,0,0,0-2-1.11,15.53,15.53,0,0,1-1.72-1.08c-1-.57-1.72-1.08-2-.75s.87.35,1.84.87c.56.3,1.59,1,2.22,1.37,1.32.78,1.66.64,1.66.64"/><path class="cls-7" d="M11.8,9.57a7.58,7.58,0,0,0-.92-2.11,15.53,15.53,0,0,1-.71-1.9c-.42-1-.71-1.9-1.11-1.79-.57.16.47.81.93,1.81.26.58.65,1.76.93,2.44.58,1.42.93,1.52.93,1.52"/></g></svg>