<svg id="Layer_4" data-name="Layer 4" xmlns="http://www.w3.org/2000/svg" viewBox="0 0 30 30"><defs><style>.cls-1{opacity:0.7;}.cls-2{fill:#00a5da;}.cls-2,.cls-4,.cls-5,.cls-6{opacity:0.9;}.cls-3{fill:#63dbf0;}.cls-4,.cls-5,.cls-6{fill:none;stroke-miterlimit:10;}.cls-4{stroke:#05c5e7;stroke-width:1.27px;}.cls-5{stroke:#00b3e0;stroke-width:1.16px;}.cls-6{stroke:#1ca9dd;stroke-width:1.05px;}.cls-7{fill:#a1e9f6;}</style></defs><title>virus</title><g class="cls-1"><circle class="cls-2" cx="15.08" cy="15.11" r="5.65" transform="translate(-3.58 25.47) rotate(-74.08)"/><path class="cls-3" d="M24.24,13.41A21.42,21.42,0,0,1,26.65,13c.74-.09,1.4.27,1.86.19s.87-.45.83-.77-.68-.66-1.14-.59-1.13.62-1.88.73-2.18,0-3.06.06C21,12.76,20.56,10.81,22,9.46a14.78,14.78,0,0,1,1.48-1.4c.42-.34.92-.3,1.22-.53a1.14,1.14,0,0,0,.23-1.29c-.32-.41-.94,0-1.26.37s-.27.89-.66,1.22-1.58.88-2.16,1.34a1.9,1.9,0,0,1-2,.3l-.5-.3a2.06,2.06,0,0,1-1-2.23c.08-.94,0-2.52.1-3.33s.82-1.3.94-1.85c.18-.87,0-1.33-.82-1.35-.37,0-.78.75-.82,1.29s.22,1,.16,1.67a24.59,24.59,0,0,1-.4,2.58c-.41,2.69-1.71,2.43-1.71,2.43a6.7,6.7,0,0,0-1.57.26,2.12,2.12,0,0,1-2-1.43,14.78,14.78,0,0,1-.93-1.81c-.2-.49,0-.86-.16-1.24s-.65-.82-1-.68a.82.82,0,0,0-.42,1.05c.24.43,1,.69,1.23,1.25s.4,1.77.68,2.45a1.9,1.9,0,0,1-.49,2.24s-.84,1.19-2.7.3a14.78,14.78,0,0,1-1.84-.87c-.56-.33-.94-1-1.28-1.12a1.09,1.09,0,0,0-1,.38c-.21.35.24.84.54,1s1.16,0,1.72.29,1.39,1.16,2,1.53a1.9,1.9,0,0,1,1,1.57l-.05.22c0,.2-.07.41-.1.61,0,0,.09,1.42-2.59,1.91a22.6,22.6,0,0,1-2.57.48c-.81.09-1.58-.25-2.07-.17s-1,.66-.92,1,.8.81,1.27.7,1.29-.94,2.06-1.05,2.32.06,3.25,0c2-.22,2.15,1.21,2.15,1.21l0-.14a2.1,2.1,0,0,1-.63,2.05c-.58.57-1.23,1.73-1.75,2.2S5,23,4.53,23.4a.82.82,0,0,0-.06,1.21.86.86,0,0,0,1.08.11c.44-.35.72-1.2,1.22-1.7a16,16,0,0,1,1.74-1.44c1.44-1.2,2.44-.9,2.8-.73a2.17,2.17,0,0,1,.62,2.31c-.21.92-.19,2.43-.38,3.23s-.91,1.45-1.09,2a.82.82,0,0,0,.48,1.09.93.93,0,0,0,.91-.56c.14-.47-.08-1.33.1-2.15a24.59,24.59,0,0,1,.7-2.51c.73-2.62,2.13-2.4,2.13-2.4.46,0,1.17.64,1.48,1.74.23.81.79,2,1,2.72s-.19,1.32-.09,1.82.59,1,.88.89.48-.79.43-1.09c-.14-.82-.63-.73-.84-1.46-.35-1.24-.22-1.06-.52-2.26-.78-3.13,1.83-3.52,3.1-1.75a15.65,15.65,0,0,1,1.23,1.7c.33.55.21,1.29.43,1.61A1.24,1.24,0,0,0,23,26a.83.83,0,0,0,.14-1.23c-.36-.41-1.17-.58-1.5-1.07S21,22,20.6,21.35A1.94,1.94,0,0,1,20.7,19l0,0c.22-.31,1-1.11,2.62-.48a14.78,14.78,0,0,1,1.9.73c.58.28.88.88,1.24,1s.82,0,1-.23c.42-.87-1.18-.86-2.19-1.3-.58-.26-1.48-1-2.14-1.37a2,2,0,0,1-1.19-2S21.72,13.88,24.24,13.41ZM21.3,12.09,9.84,14A5.36,5.36,0,1,1,14,20.36,5.37,5.37,0,0,1,9.84,14Z"/><circle class="cls-4" cx="15.08" cy="15.11" r="5.52" transform="translate(-2.8 26.77) rotate(-78.15)"/><circle class="cls-5" cx="15.08" cy="15.11" r="5.04" transform="translate(-2.8 26.77) rotate(-78.15)"/><circle class="cls-6" cx="15.08" cy="15.11" r="4.59" transform="translate(-2.8 26.77) rotate(-78.15)"/><path class="cls-7" d="M16.54,8.85s-.14,0,.27-2.71A26,26,0,0,0,17,3.55c.13-1.44.17-2.6.58-2.62.58,0-.24,1.17-.4,2.58-.1.81-.16,2.41-.24,3.35-.17,2-.44,2-.44,2"/><path class="cls-7" d="M8.93,16.21A11.62,11.62,0,0,0,6,16.6a23.83,23.83,0,0,1-2.59.23C2,17,.82,17,.81,17.49c0,.63,1.17-.27,2.57-.48.81-.12,2.41-.2,3.34-.31,2-.22,2.21-.56,2.21-.56"/><path class="cls-7" d="M10.19,19.45s0,.23-1.86,1.74a16.83,16.83,0,0,0-1.55,1.63c-.89.88-1.55,1.63-1.91,1.33-.52-.42.83-.61,1.74-1.44.52-.48,1.43-1.51,2-2.08,1.21-1.19,1.62-1.13,1.62-1.13"/><path class="cls-7" d="M13,21.14A12.65,12.65,0,0,1,12.34,24a26,26,0,0,0-.48,2.56c-.3,1.42-.48,2.56-.89,2.53-.58,0,.37-1.14.7-2.51.19-.79.44-2.37.63-3.29.4-1.92.75-2.15.75-2.15"/><path class="cls-7" d="M21.29,13.46A11,11,0,0,0,24,13.08a22.59,22.59,0,0,1,2.44-.22c1.35-.16,2.29,0,2.3-.4,0-.59-.95,0-2.26.22-.76.11-2.26.2-3.14.3-1.84.21-2.07.54-2.07.54"/><path class="cls-7" d="M19.14,20.17s0,.22,1.27,2a16.46,16.46,0,0,1,1,1.82c.6,1,1,1.82,1.4,1.65.53-.24-.61-.75-1.23-1.7-.36-.55-.95-1.69-1.34-2.33-.81-1.35-1.18-1.4-1.18-1.4"/><path class="cls-7" d="M21.21,17.24a7.58,7.58,0,0,0,2.09,1,15.53,15.53,0,0,1,1.8.94c1,.49,1.7,1.17,1.92.82s-.79-.51-1.8-1c-.58-.26-1.67-.87-2.32-1.19-1.38-.67-1.71-.5-1.71-.5"/><path class="cls-7" d="M16.13,21.59a14.73,14.73,0,0,1,.68,2.54c.28,1.2.32,1,.67,2.22s.67,2.22.42,2.35-.2-1-.52-2.26c-.18-.71-.62-2.06-.85-2.87-.48-1.69-.36-2-.36-2"/><path class="cls-7" d="M19.9,10.75s.21,0,1.76-1.48a15.53,15.53,0,0,1,1.62-1.22c.88-.7,1.62-1.22,1.4-1.57s-.64.68-1.48,1.4c-.48.42-1.51,1.12-2.08,1.58-1.2,1-1.19,1.32-1.19,1.32"/><path class="cls-7" d="M9.32,12.25a7.58,7.58,0,0,0-2-1.11,15.53,15.53,0,0,1-1.72-1.08c-1-.57-1.72-1.08-2-.75s.87.35,1.84.87c.56.3,1.59,1,2.22,1.37,1.32.78,1.66.64,1.66.64"/><path class="cls-7" d="M11.8,9.57a7.58,7.58,0,0,0-.92-2.11,15.53,15.53,0,0,1-.71-1.9c-.42-1-.71-1.9-1.11-1.79-.57.16.47.81.93,1.81.26.58.65,1.76.93,2.44.58,1.42.93,1.52.93,1.52"/></g></svg>