<svg xmlns="http://www.w3.org/2000/svg" width="30" height="30" viewBox="0 0 30 30">
  <g opacity=".702">
    <g fill="none" fill-rule="evenodd" opacity=".7">
      <circle cx="15.087" cy="15.113" r="5.65" fill="#00A5DA" fill-rule="nonzero" opacity=".9" transform="rotate(-74.08 15.087 15.113)"/>
      <path fill="#63DBF0" fill-rule="nonzero" d="M24.24,13.41 C25.0348732,13.2275659 25.8395166,13.0906763 26.65,13 C27.39,12.91 28.05,13.27 28.51,13.19 C28.97,13.11 29.38,12.74 29.34,12.42 C29.3,12.1 28.66,11.76 28.2,11.83 C27.74,11.9 27.07,12.45 26.32,12.56 C25.57,12.67 24.14,12.56 23.26,12.62 C21,12.76 20.56,10.81 22,9.46 C22.4605455,8.95984817 22.9550533,8.49207056 23.48,8.06 C23.9,7.72 24.4,7.76 24.7,7.53 C25.0408209,7.19141751 25.1328047,6.67550798 24.93,6.24 C24.61,5.83 23.99,6.24 23.67,6.61 C23.35,6.98 23.4,7.5 23.01,7.83 C22.62,8.16 21.43,8.71 20.85,9.17 C20.296349,9.64596704 19.5189329,9.76257946 18.85,9.47 L18.35,9.17 C17.5641061,8.72602841 17.1587756,7.82214123 17.35,6.94 C17.43,6 17.35,4.42 17.45,3.61 C17.55,2.8 18.27,2.31 18.39,1.76 C18.57,0.89 18.39,0.43 17.57,0.41 C17.2,0.41 16.79,1.16 16.75,1.7 C16.71,2.24 16.97,2.7 16.91,3.37 C16.8224479,4.2364765 16.6889264,5.09769005 16.51,5.95 C16.1,8.64 14.8,8.38 14.8,8.38 C14.268196,8.40398718 13.7411459,8.49126936 13.23,8.64 C12.3267773,8.63805233 11.523972,8.06404656 11.23,7.21 C10.8787847,6.62874928 10.5680484,6.02398292 10.3,5.4 C10.1,4.91 10.3,4.54 10.14,4.16 C9.98,3.78 9.49,3.34 9.14,3.48 C8.74244304,3.66204098 8.55765943,4.124 8.72,4.53 C8.96,4.96 9.72,5.22 9.95,5.78 C10.18,6.34 10.35,7.55 10.63,8.23 C10.9863993,9.00218194 10.7862505,9.9171477 10.14,10.47 C10.14,10.47 9.3,11.66 7.44,10.77 C6.80740405,10.5226249 6.19261341,10.2319359 5.6,9.9 C5.04,9.57 4.66,8.9 4.32,8.78 C3.94315648,8.72313542 3.56397958,8.86722263 3.32,9.16 C3.11,9.51 3.56,10 3.86,10.16 C4.16,10.32 5.02,10.16 5.58,10.45 C6.14,10.74 6.97,11.61 7.58,11.98 C8.16441537,12.293027 8.54340596,12.8880422 8.58,13.55 L8.53,13.77 C8.53,13.97 8.46,14.18 8.43,14.38 C8.43,14.38 8.52,15.8 5.84,16.29 C4.99331347,16.4994584 4.13521135,16.6597265 3.27,16.77 C2.46,16.86 1.69,16.52 1.2,16.6 C0.71,16.68 0.2,17.26 0.28,17.6 C0.36,17.94 1.08,18.41 1.55,18.3 C2.02,18.19 2.84,17.36 3.61,17.25 C4.38,17.14 5.93,17.31 6.86,17.25 C8.86,17.03 9.01,18.46 9.01,18.46 L9.01,18.32 C9.19105951,19.0671366 8.94939903,19.8534921 8.38,20.37 C7.8,20.94 7.15,22.1 6.63,22.57 C6.11,23.04 5,23 4.53,23.4 C4.35223389,23.5467448 4.24444217,23.7615346 4.23302595,23.9917616 C4.22160974,24.2219886 4.30762345,24.4463887 4.47,24.61 C4.75844987,24.8979574 5.2094176,24.9438893 5.55,24.72 C5.99,24.37 6.27,23.52 6.77,23.02 C7.3153548,22.4996114 7.89680309,22.0184128 8.51,21.58 C9.95,20.38 10.95,20.68 11.31,20.85 C11.9606559,21.4263356 12.2046259,22.3353204 11.93,23.16 C11.72,24.08 11.74,25.59 11.55,26.39 C11.36,27.19 10.64,27.84 10.46,28.39 C10.3726878,28.5976702 10.3746589,28.8321151 10.4654506,29.0382878 C10.5562422,29.2444606 10.7278569,29.4042001 10.94,29.48 C11.3309979,29.5036037 11.6948703,29.2796822 11.85,28.92 C11.99,28.45 11.77,27.59 11.95,26.77 C12.1388077,25.9215496 12.3724691,25.0837069 12.65,24.26 C13.38,21.64 14.78,21.86 14.78,21.86 C15.24,21.86 15.95,22.5 16.26,23.6 C16.49,24.41 17.05,25.6 17.26,26.32 C17.47,27.04 17.07,27.64 17.17,28.14 C17.27,28.64 17.76,29.14 18.05,29.03 C18.34,28.92 18.53,28.24 18.48,27.94 C18.34,27.12 17.85,27.21 17.64,26.48 C17.29,25.24 17.42,25.42 17.12,24.22 C16.34,21.09 18.95,20.7 20.22,22.47 C20.6675696,23.0085118 21.078493,23.5764547 21.45,24.17 C21.78,24.72 21.66,25.46 21.88,25.78 C22.1953858,26.0310115 22.6130997,26.1130624 23,26 C23.1929401,25.8634763 23.3185237,25.6511703 23.3452535,25.4163297 C23.3719833,25.181489 23.2973238,24.9463911 23.14,24.77 C22.78,24.36 21.97,24.19 21.64,23.7 C21.31,23.21 21,22 20.6,21.35 C20.1005165,20.6334718 20.1414512,19.6715056 20.7,19 L20.7,19 C20.92,18.69 21.7,17.89 23.32,18.52 C23.9693559,18.719383 24.6041943,18.9632946 25.22,19.25 C25.8,19.53 26.1,20.13 26.46,20.25 C26.82,20.37 27.28,20.25 27.46,20.02 C27.88,19.15 26.28,19.16 25.27,18.72 C24.69,18.46 23.79,17.72 23.13,17.35 C22.3463631,17.0065098 21.8680246,16.2025795 21.94,15.35 C21.94,15.35 21.72,13.88 24.24,13.41 Z M21.3,12.09 L9.84,14 C10.4526711,11.1075222 13.2918164,9.25742448 16.185342,9.86512785 C19.0788677,10.4728312 20.9338379,13.3087953 20.3311041,16.2033602 C19.7283703,19.0979251 16.8955956,20.9577625 14,20.36 C12.6044537,20.0691835 11.3818063,19.2354137 10.6014861,18.0424242 C9.8211659,16.8494346 9.5472141,15.3951344 9.84,14 L21.3,12.09 Z"/>
      <circle cx="15.085" cy="15.114" r="5.52" stroke="#05C5E7" stroke-width="1.27" opacity=".9" transform="rotate(-78.15 15.085 15.114)"/>
      <circle cx="15.085" cy="15.114" r="5.04" stroke="#00B3E0" stroke-width="1.16" opacity=".9" transform="rotate(-78.15 15.085 15.114)"/>
      <circle cx="15.085" cy="15.114" r="4.59" stroke="#1CA9DD" stroke-width="1.05" opacity=".9" transform="rotate(-78.15 15.085 15.114)"/>
      <path fill="#A1E9F6" fill-rule="nonzero" d="M16.54 8.85C16.54 8.85 16.4 8.85 16.81 6.14 16.9164369 5.2803706 16.9798493 4.41595928 17 3.55 17.13 2.11 17.17.95 17.58.93 18.16.93 17.34 2.1 17.18 3.51 17.08 4.32 17.02 5.92 16.94 6.86 16.77 8.86 16.5 8.86 16.5 8.86M8.93 16.21C7.94071361 16.2147435 6.95608277 16.3458036 6 16.6 5.14149588 16.7237456 4.27687578 16.8005265 3.41 16.83 2 17 .82 17 .81 17.49.81 18.12 1.98 17.22 3.38 17.01 4.19 16.89 5.79 16.81 6.72 16.7 8.72 16.48 8.93 16.14 8.93 16.14M10.19 19.45C10.19 19.45 10.19 19.68 8.33 21.19 7.77756284 21.6981608 7.25974 22.24271 6.78 22.82 5.89 23.7 5.23 24.45 4.87 24.15 4.35 23.73 5.7 23.54 6.61 22.71 7.13 22.23 8.04 21.2 8.61 20.63 9.82 19.44 10.23 19.5 10.23 19.5M13 21.14C12.8917204 22.1157134 12.6702299 23.0755059 12.34 24 12.1373313 24.8447782 11.9771303 25.6991833 11.86 26.56 11.56 27.98 11.38 29.12 10.97 29.09 10.39 29.09 11.34 27.95 11.67 26.58 11.86 25.79 12.11 24.21 12.3 23.29 12.7 21.37 13.05 21.14 13.05 21.14M21.29 13.46C22.205629 13.446628 23.1160052 13.3189738 24 13.08 24.8087551 12.962585 25.623286 12.8891437 26.44 12.86 27.79 12.7 28.73 12.86 28.74 12.46 28.74 11.87 27.79 12.46 26.48 12.68 25.72 12.79 24.22 12.88 23.34 12.98 21.5 13.19 21.27 13.52 21.27 13.52M19.14 20.17C19.14 20.17 19.14 20.39 20.41 22.17 20.7813085 22.7550139 21.1153063 23.36289 21.41 23.99 22.01 24.99 22.41 25.81 22.81 25.64 23.34 25.4 22.2 24.89 21.58 23.94 21.22 23.39 20.63 22.25 20.24 21.61 19.43 20.26 19.06 20.21 19.06 20.21M21.21 17.24C21.8513058 17.6784651 22.556205 18.0157374 23.3 18.24 23.9198648 18.5137285 24.5211498 18.8277329 25.1 19.18 26.1 19.67 26.8 20.35 27.02 20 27.24 19.65 26.23 19.49 25.22 19 24.64 18.74 23.55 18.13 22.9 17.81 21.52 17.14 21.19 17.31 21.19 17.31M16.13 21.59C16.4319337 22.4147021 16.6595068 23.2647548 16.81 24.13 17.09 25.33 17.13 25.13 17.48 26.35 17.83 27.57 18.15 28.57 17.9 28.7 17.65 28.83 17.7 27.7 17.38 26.44 17.2 25.73 16.76 24.38 16.53 23.57 16.05 21.88 16.17 21.57 16.17 21.57M19.9 10.75C19.9 10.75 20.11 10.75 21.66 9.27 22.1728423 8.82847175 22.7139959 8.42093638 23.28 8.05 24.16 7.35 24.9 6.83 24.68 6.48 24.46 6.13 24.04 7.16 23.2 7.88 22.72 8.3 21.69 9 21.12 9.46 19.92 10.46 19.93 10.78 19.93 10.78M9.32 12.25C8.71331932 11.7809627 8.03897652 11.4067025 7.32 11.14 6.72371582 10.8179151 6.14915418 10.4571438 5.6 10.06 4.6 9.49 3.88 8.98 3.6 9.31 3.32 9.64 4.47 9.66 5.44 10.18 6 10.48 7.03 11.18 7.66 11.55 8.98 12.33 9.32 12.19 9.32 12.19M11.8 9.57C11.6025362 8.823933 11.2922931 8.11239736 10.88 7.46 10.6021832 6.84281499 10.3650108 6.20812833 10.17 5.56 9.75 4.56 9.46 3.66 9.06 3.77 8.49 3.93 9.53 4.58 9.99 5.58 10.25 6.16 10.64 7.34 10.92 8.02 11.5 9.44 11.85 9.54 11.85 9.54"/>
    </g>
  </g>
</svg>
